<?xml version="1.0" encoding="utf-8"?>
<svg version="1.1" xmlns="http://www.w3.org/2000/svg" xmlns:xlink="http://www.w3.org/1999/xlink" x="0px" y="0px"
	 viewBox="0 0 16 16" style="enable-background:new 0 0 16 16;" xml:space="preserve">
<style type="text/css">
	.st0{display:none;}
	.st1{display:inline;}
	.st2{fill:#000000;} /* Changed to black */
	.st3{fill:#000000;} /* Changed to black */
	.st4{fill:none;}
	.st5{opacity:0.3;fill:none;}
	.st6{fill:#000000;} /* Changed to black */
	.st7{fill-rule:evenodd;clip-rule:evenodd;fill:#000000;} /* Changed to black */
	.st8{fill-rule:evenodd;clip-rule:evenodd;fill:#000000;} /* Changed to black */
	.st9{fill-rule:evenodd;clip-rule:evenodd;fill:#000000;} /* Changed to black */
	.st10{fill:#000000;} /* Changed to black */
	.st11{fill:#000000;} /* Changed to black */
	.st12{fill:#000000;} /* Changed to black */
	.st13{display:inline;fill:none;}
	.st14{display:inline;fill:#000000;} /* Changed to black */
	.st15{display:inline;opacity:0.3;fill:none;}
	.st16{display:inline;fill-rule:evenodd;clip-rule:evenodd;fill:#000000;} /* Changed to black */
	.st17{fill:none;stroke:#000000;stroke-width:2;stroke-linecap:round;} /* Changed stroke to black */
</style>
<g id="Outter_Container" class="st0">
</g>
<g id="NEW" class="st0">
</g>
<g id="NEW_NO_Container">
	<g id="icon-menu_2_">
		<g id="Group_557_3_" transform="translate(-5665 705.914)">
			<g id="Group_552_3_">
				<path class="st2" d="M5680.0005-702.914h-14c-0.5522,0-1-0.4478-1-1s0.4478-1,1-1h14c0.5522,0,1,0.4478,1,1
					S5680.5527-702.914,5680.0005-702.914z"/>
				<path class="st2" d="M5680.0005-696.914h-14c-0.5522,0-1-0.4478-1-1s0.4478-1,1-1h14c0.5522,0,1,0.4478,1,1
					S5680.5527-696.914,5680.0005-696.914z"/>
				<path class="st2" d="M5674.0005-690.914h-8c-0.5522,0-1-0.4478-1-1s0.4478-1,1-1h8c0.5522,0,1,0.4478,1,1
					S5674.5527-690.914,5674.0005-690.914z"/>
			</g>
		</g>
	</g>
</g>
</svg>
